HIERARCHY
ROOT Hips
{
  OFFSET 7.333 -26.027 -164.856
  CHANNELS 6 Xposition Yposition Zposition Zrotation Xrotation Yrotation
  JOINT LeftUpLeg
  {
    OFFSET 10.092 0.000 0.000
    CHANNELS 3 Zrotation Xrotation Yrotation
    JOINT LeftLeg
    {
      OFFSET 0.000 -38.160 -0.000
    CHANNELS 3 Zrotation Xrotation Yrotation
      JOINT LeftFoot
      {
        OFFSET -0.000 -24.040 0.000
    CHANNELS 3 Zrotation Xrotation Yrotation
        End Site
        {
          OFFSET -0.000 0.000 12.945
        }
      }
    }
  }
  JOINT RightUpLeg
  {
    OFFSET -10.092 -0.000 0.000
    CHANNELS 3 Zrotation Xrotation Yrotation
    JOINT RightLeg
    {
      OFFSET 0.000 -33.046 0.000
    CHANNELS 3 Zrotation Xrotation Yrotation
      JOINT RightFoot
      {
        OFFSET 0.000 -22.031 -0.000
    CHANNELS 3 Zrotation Xrotation Yrotation
        End Site
        {
          OFFSET 0.000 -0.000 11.863
        }
      }
    }
  }
  JOINT Spine
  {
    OFFSET -0.000 16.511 0.000
    CHANNELS 3 Zrotation Xrotation Yrotation
    JOINT LeftShoulder
    {
      OFFSET 0 16.511 0
    CHANNELS 3 Zrotation Xrotation Yrotation
      JOINT LeftArm
      {
        OFFSET 16.337 0.000 0.000
    CHANNELS 3 Zrotation Xrotation Yrotation
        JOINT LeftForeArm
        {
          OFFSET 0.000 -24.030 0.000
    CHANNELS 3 Zrotation Xrotation Yrotation
          JOINT LeftHand
          {
            OFFSET 0.000 -17.629 -0.000
    CHANNELS 3 Zrotation Xrotation Yrotation
            End Site
            {
              OFFSET 0.000 -11.753 -0.000
            }
          }
        }
      }
    }
    JOINT RightShoulder
    {
      OFFSET 0 16.511 0
    CHANNELS 3 Zrotation Xrotation Yrotation
      JOINT RightArm
      {
        OFFSET -16.337 0.000 0.000
    CHANNELS 3 Zrotation Xrotation Yrotation
        JOINT RightForeArm
        {
          OFFSET -0.000 -19.534 0.000
    CHANNELS 3 Zrotation Xrotation Yrotation
          JOINT RightHand
          {
            OFFSET 0.000 -19.514 -0.000
    CHANNELS 3 Zrotation Xrotation Yrotation
            End Site
            {
              OFFSET 0.000 -13.010 -0.000
            }
          }
        }
      }
    }
    JOINT Neck
    {
      OFFSET -0.000 16.511 0.000
    CHANNELS 3 Zrotation Xrotation Yrotation
      JOINT Head
      {
        OFFSET -0.000 12.493 -0.000
    CHANNELS 3 Zrotation Xrotation Yrotation
        End Site
        {
          OFFSET -0.000 8.328 -0.000
        }
      }
    }
  }
}
MOTION
Frames: 17
Frame Time: 0.0333333
0 0 0 -9.927670e-01 -2.037591e+00 -8.236351e+00 -2.233400e+00 1.262110e+01 4.882260e-01 5.808630e+00 -1.152870e+01 7.262740e-01 0 0 0 5.697340e+00 1.231160e+01 -1.218680e+00 -2.167040e+00 -7.597930e+00 4.499230e-01 0 0 0 -2.000000e-06 -1.000000e-06 -5.200000e-05 0 0 0 6.662700e+01 -2.765630e+01 -5.751350e+00 1.222860e+02 -2.447700e+01 1.378360e+02 0 0 0 0 0 0 -6.681550e+01 -4.153390e+01 2.134530e+01 -1.150670e+02 -1.908380e+01 -1.568030e+02 1.000000e-06 0 0 -1.082640e-01 -1.190590e+00 -2.250000e-03 0 0 0 
0 0 0 -9.664010e-01 -1.620430e+00 -8.001600e+00 -2.821740e+00 1.184470e+01 5.796320e-01 7.003410e+00 -1.200660e+01 8.839510e-01 0 0 0 4.763530e+00 1.158340e+01 -9.586180e-01 -6.015000e-02 -6.931010e+00 5.570320e-01 0 0 0 2.000000e-06 0 -5.000000e-06 0 0 0 6.668520e+01 -3.233320e+01 -7.696730e+00 1.230850e+02 -2.451710e+01 1.385040e+02 0 0 0 0 0 0 -6.656680e+01 -4.280210e+01 2.178950e+01 -1.188520e+02 -2.278500e+01 -1.551580e+02 0 -1.000000e-06 -1.000000e-06 -2.517200e-01 -1.228820e+00 -5.396000e-03 0 0 -1.000000e-06 
0 0 0 -8.730490e-01 -1.670774e+00 -8.720236e+00 -3.760110e+00 1.151800e+01 7.517806e-01 8.484650e+00 -1.098960e+01 9.171415e-01 0 0 5.872145e-08 4.941010e+00 1.127683e+01 -9.690400e-01 -1.585530e+00 -5.995063e+00 3.421531e-01 0 0 -1.216065e-07 -1.499770e-06 -1.044660e-07 8.598401e-05 0 0 0 6.621712e+01 -3.151778e+01 -7.655940e+00 1.241534e+02 -2.516530e+01 1.391739e+02 -3.098124e-08 5.752643e-08 2.315907e-07 0 0 0 -6.558510e+01 -4.271864e+01 2.256430e+01 -1.208290e+02 -2.418021e+01 -1.526997e+02 6.468729e-07 5.035396e-08 -2.002342e-07 1.400140e-01 -1.067492e+00 2.607964e-03 0 0 -3.420676e-07 
0 0 0 -8.486088e-01 -1.792142e+00 -9.110330e+00 -3.527667e+00 1.162385e+01 7.116870e-01 6.708191e+00 -1.002525e+01 5.666050e-01 0 0 9.720245e-08 5.238070e+00 1.217433e+01 -1.107660e+00 -3.181201e+00 -8.423979e+00 2.838681e-01 0 0 -1.201060e-07 7.648793e-08 NaN 2.693056e-05 0 0 0 6.610894e+01 -2.845142e+01 -6.408754e+00 1.243728e+02 -2.348406e+01 1.408736e+02 5.492942e-08 3.234195e-08 1.634456e-07 0 0 0 -6.718590e+01 -4.235187e+01 2.130324e+01 -1.191100e+02 -2.044131e+01 -1.547481e+02 NaN 4.963084e-24 1.628813e-08 1.339332e-01 -1.211093e+00 2.830000e-03 0 0 NaN 
0 0 0 -8.091278e-01 -1.932954e+00 -9.135375e+00 -4.045606e+00 1.150186e+01 8.078963e-01 8.372890e+00 -9.679578e+00 7.427640e-01 0 0 1.204780e-07 4.137570e+00 1.229561e+01 -8.826170e-01 -1.678200e-01 -8.177570e+00 5.519610e-01 0 0 NaN 1.891799e-06 NaN 6.694233e-05 0 0 0 6.745291e+01 -2.229430e+01 -3.088221e+00 1.230831e+02 -2.228145e+01 1.408717e+02 1.175585e-07 4.048022e-08 -1.930210e-11 0 0 0 -6.858601e+01 -4.094393e+01 1.998430e+01 -1.173950e+02 -1.510919e+01 -1.546535e+02 NaN -4.346732e-08 -2.143716e-08 1.337470e-01 -1.233892e+00 2.878882e-03 0 0 NaN 
0 0 0 -7.082221e-01 -1.103724e+00 -9.275985e+00 -4.159950e+00 1.088067e+01 7.864769e-01 8.109490e+00 -9.975520e+00 6.983290e-01 0 0 NaN 4.497520e+00 1.167305e+01 -9.117760e-01 -1.745920e+00 -8.494349e+00 3.931740e-01 0 0 NaN 1.122917e-07 -1.254436e-08 2.900000e-05 0 0 0 6.644749e+01 -1.594771e+01 -6.073200e-01 1.202894e+02 -1.920460e+01 1.408571e+02 NaN 5.094459e-08 NaN 0 0 0 -6.935395e+01 -3.562333e+01 1.828130e+01 -1.155839e+02 -9.698062e+00 -1.469323e+02 7.470699e-08 -6.225515e-08 -4.098417e-08 1.934531e-01 -1.077148e+00 3.654055e-03 0 0 3.071433e-08 
0 0 0 -7.927000e-01 -1.734030e+00 -8.897673e+00 -3.992611e+00 1.174801e+01 8.144670e-01 7.856150e+00 -1.056520e+01 7.248849e-01 0 0 NaN 3.979360e+00 1.163257e+01 -8.039460e-01 -2.443669e-02 -6.634130e+00 4.487894e-01 0 0 -8.536311e-08 -9.344671e-07 -1.409959e-08 -7.400000e-05 0 0 0 6.434483e+01 -1.067786e+01 1.369794e+00 1.142980e+02 -1.633327e+01 1.379184e+02 NaN 1.500000e-07 6.928419e-08 0 0 0 -6.800012e+01 -2.663060e+01 1.665000e+01 -1.127905e+02 -4.389315e+00 -1.435743e+02 -5.712529e-11 -6.407620e-08 -4.676728e-08 -2.202600e-02 -1.349637e+00 -5.190000e-04 0 0 -3.637397e-07 
0 0 0 -6.241840e-01 -2.373740e+00 -8.735961e+00 -4.043750e+00 1.276030e+01 8.941628e-01 7.601050e+00 -1.111718e+01 7.060356e-01 0 0 2.856404e-08 3.773840e+00 1.302426e+01 -8.518040e-01 2.244170e-01 -7.782403e+00 5.290903e-01 0 0 NaN NaN -8.881268e-08 3.675548e-05 0 0 0 6.054680e+01 -2.608759e+00 5.342522e+00 1.079070e+02 -1.677549e+01 1.289181e+02 -1.255377e-08 NaN 2.501716e-07 0 0 0 -6.619766e+01 -2.113609e+01 1.570180e+01 -1.072483e+02 3.349950e+00 -1.474654e+02 -4.430730e-08 -6.054522e-08 -3.803828e-08 4.928000e-03 -1.492030e+00 1.290000e-04 0 0 NaN 
0 0 0 -4.465900e-01 -1.844270e+00 -8.672096e+00 -3.976164e+00 1.318280e+01 9.082120e-01 7.380531e+00 -1.296824e+01 7.887312e-01 0 0 7.582174e-08 2.630971e+00 1.216150e+01 -5.532910e-01 2.930664e+00 -5.811256e+00 5.583566e-01 0 0 -2.279445e-07 NaN NaN -1.699940e-05 0 0 0 5.422185e+01 3.313599e+00 9.743142e+00 9.911670e+01 -1.509302e+01 1.143478e+02 -2.774161e-08 NaN NaN 0 0 0 -6.020063e+01 -1.388878e+01 1.502699e+01 -1.011107e+02 8.275597e+00 -1.383128e+02 -2.981784e-08 -2.655417e-08 -5.533602e-08 1.474319e-01 -9.144157e-01 2.345444e-03 0 0 NaN 
0 0 0 -7.269050e-01 -1.656510e+00 -9.693221e+00 -3.828560e+00 1.273860e+01 8.453980e-01 7.334490e+00 -1.263810e+01 7.879596e-01 0 0 NaN 2.660980e+00 1.160010e+01 -5.354480e-01 3.020520e+00 -5.214090e+00 5.129881e-01 0 0 NaN -2.170493e-07 NaN -4.497867e-05 0 0 0 5.064005e+01 1.099365e+01 1.630856e+01 8.562284e+01 -1.798979e+01 8.103696e+01 -2.614806e-08 1.010255e-07 NaN 0 0 0 -5.687677e+01 -1.021818e+01 1.422566e+01 -8.914229e+01 1.368568e+01 -1.497180e+02 1.076398e-07 -2.491172e-07 -3.851201e-08 -9.135000e-02 -9.664710e-01 -1.540000e-03 0 0 -1.648614e-07 
0 0 0 -4.234117e-01 -5.110919e-01 -1.059543e+01 -4.236260e+00 1.127270e+01 8.295430e-01 7.621404e+00 -1.207460e+01 7.256094e-01 0 0 -9.428598e-08 2.434600e+00 9.953578e+00 -4.210092e-01 3.291229e+00 -4.700755e+00 4.669677e-01 0 0 NaN -8.200691e-08 -9.905172e-09 -1.098733e-05 0 0 0 4.619376e+01 1.735978e+01 2.333690e+01 7.170784e+01 -2.235560e+01 5.709617e+01 -2.467431e-08 NaN -9.498361e-08 0 0 0 -5.193687e+01 -6.741058e+00 1.332049e+01 -8.137079e+01 1.359020e+01 -1.443973e+02 -3.895754e-08 NaN -5.004257e-08 -9.817900e-02 -8.075821e-01 -1.379708e-03 0 0 -6.973099e-07 
0 0 0 -3.930879e-01 3.904980e-01 -1.048110e+01 -3.443630e+00 9.680120e+00 5.797070e-01 5.301410e+00 -1.079920e+01 3.575894e-01 0 0 5.252547e-08 2.549844e+00 8.874337e+00 -3.930950e-01 2.807498e+00 -5.904240e+00 5.490711e-01 0 0 -1.763165e-08 -4.240208e-08 -1.896028e-08 8.399570e-05 0 0 0 4.200907e+01 2.044761e+01 2.851382e+01 6.292227e+01 -2.677187e+01 4.861680e+01 -2.436159e-08 NaN 1.048286e-07 0 0 0 -5.045146e+01 -4.532467e+00 1.199930e+01 -7.089230e+01 1.496882e+01 -1.437030e+02 -1.594761e-09 NaN -2.063208e-07 -1.768780e-01 -5.653295e-01 -1.721936e-03 0 0 NaN 
0 0 0 -4.295367e-01 4.681114e-01 -1.018610e+01 -3.539070e+00 1.064430e+01 6.545540e-01 6.678590e+00 -1.407200e+01 7.789980e-01 0 0 NaN 2.843550e+00 8.794834e+00 -4.353880e-01 2.949370e+00 -5.978710e+00 6.054262e-01 0 0 -2.365394e-07 5.326522e-07 -8.575408e-09 -6.980407e-05 0 0 0 3.876862e+01 2.262458e+01 3.277730e+01 5.643693e+01 -3.066843e+01 4.400310e+01 -4.549969e-08 6.639273e-09 NaN 0 0 0 -4.561000e+01 -1.139136e+00 9.997615e+00 -7.009738e+01 9.127785e+00 -1.514093e+02 -5.070942e-08 3.638826e-08 NaN -3.144748e-01 -5.285799e-01 -2.884863e-03 0 0 NaN 
0 0 0 -5.239792e-01 6.360230e-01 -9.354408e+00 -3.115789e+00 1.021290e+01 5.529672e-01 6.273560e+00 -1.382900e+01 7.676060e-01 0 0 3.365471e-08 2.593860e+00 8.773688e+00 -3.957319e-01 4.257449e+00 -6.128339e+00 7.314450e-01 0 0 NaN NaN -5.649020e-09 9.200000e-05 0 0 0 3.736718e+01 2.259643e+01 3.386782e+01 5.075078e+01 -3.043969e+01 3.802692e+01 NaN 4.622169e-08 -7.992262e-09 0 0 0 -4.305969e+01 8.668388e-01 8.350988e+00 -6.933042e+01 6.083030e+00 -1.561997e+02 -2.113944e-07 -6.387924e-09 NaN -4.049350e-01 -4.742785e-01 -3.347000e-03 0 0 8.646052e-07 
0 0 0 -1.634140e-01 -1.191010e-01 -9.307820e+00 -3.535360e+00 1.061315e+01 6.517792e-01 4.697695e+00 -1.272590e+01 2.680172e-01 0 0 2.853199e-08 3.133130e+00 9.530074e+00 -5.203200e-01 5.058120e-01 -6.499010e+00 4.075990e-01 0 0 NaN NaN -5.109727e-09 -9.100000e-05 0 0 0 3.657543e+01 2.232956e+01 3.435097e+01 4.946841e+01 -2.970747e+01 3.623664e+01 1.010101e-08 5.484069e-08 2.102944e-07 0 0 0 -4.284281e+01 5.622856e-01 8.731221e+00 -6.982728e+01 5.753036e+00 -1.450567e+02 NaN 1.132953e-07 -4.252799e-07 3.630000e-03 -7.893569e-01 4.900000e-05 0 0 NaN 
0 0 0 8.250000e-04 -5.164790e-01 -9.655688e+00 -4.344620e+00 1.176720e+01 8.875496e-01 6.168020e+00 -1.384140e+01 4.582780e-01 0 0 5.967712e-08 2.014930e+00 9.935520e+00 -3.480671e-01 2.032900e+00 -5.570496e+00 3.905847e-01 0 0 -1.223153e-07 1.374040e-07 -1.112096e-08 -4.194791e-05 0 0 0 3.490598e+01 2.342423e+01 3.696757e+01 5.365490e+01 -3.603994e+01 4.408647e+01 -2.103006e-08 7.534247e-08 NaN 0 0 0 -4.581768e+01 -2.421248e+00 1.127670e+01 -6.884982e+01 1.083759e+01 -1.398247e+02 NaN NaN NaN 5.519200e-02 -1.009162e+00 9.738092e-04 0 0 NaN 
0 0 0 -1.326990e-01 -1.579649e-01 -9.171895e+00 -4.145980e+00 1.037140e+01 7.476840e-01 7.407308e+00 -1.226630e+01 7.077918e-01 0 0 4.396996e-08 3.582940e+00 9.150538e+00 -5.702276e-01 -2.469445e-01 -5.922740e+00 3.364520e-01 0 0 NaN 4.843322e-08 -6.103801e-10 -3.600000e-05 0 0 0 3.851726e+01 2.097804e+01 3.132082e+01 5.913858e+01 -3.154380e+01 4.743047e+01 -2.025361e-08 NaN NaN 0 0 0 -4.708224e+01 -3.337600e+00 1.181509e+01 -7.466042e+01 9.921860e+00 -1.511878e+02 5.439650e-08 4.285714e-07 NaN -3.543846e-02 -7.025077e-01 -4.319630e-04 0 0 -3.252740e-07 
